<svg width="50" height="50" viewBox="0 0 50 50" fill="none" xmlns="http://www.w3.org/2000/svg">
<path d="M21.38 30.42C21.0067 30.1933 20.6267 29.9733 20.24 29.76C19.8667 29.5467 19.4867 29.3533 19.1 29.18C18.9933 30.02 18.8333 30.6667 18.62 31.12C18.42 31.5867 18.1533 31.9067 17.82 32.08C17.4867 32.2533 17.0733 32.34 16.58 32.34C16.5 32.34 16.4133 32.34 16.32 32.34C16.24 32.34 16.1467 32.3333 16.04 32.32C15.4533 32.2667 14.84 32.0933 14.2 31.8C13.5733 31.52 12.9867 31.1467 12.44 30.68C11.9067 30.2 11.4867 29.66 11.18 29.06C10.9533 28.58 10.84 28.16 10.84 27.8C10.84 27.2 11.1067 26.72 11.64 26.36C12.1733 26 12.9267 25.82 13.9 25.82C14.0467 25.82 14.1867 25.82 14.32 25.82C14.4667 25.82 14.62 25.8333 14.78 25.86C15.1 25.8867 15.44 25.9333 15.8 26C16.16 26.0533 16.5267 26.12 16.9 26.2V24.98C16.9 24.3933 16.8933 23.78 16.88 23.14C16.88 22.4867 16.8733 21.8333 16.86 21.18H11.66L11.04 19.46L16.8 18.98C16.7867 18.1267 16.76 17.3467 16.72 16.64C16.6933 15.92 16.66 15.3533 16.62 14.94L19.52 15.16C19.52 15.3067 19.52 15.48 19.52 15.68C19.5333 15.88 19.54 16.1 19.54 16.34C19.54 16.6733 19.5333 17.0467 19.52 17.46C19.52 17.86 19.5133 18.2867 19.5 18.74L22.2 18.52V21.18H19.46C19.4467 22.1533 19.42 23.1333 19.38 24.12C19.3533 25.1067 19.32 26 19.28 26.8C19.8 26.9467 20.3267 27.1133 20.86 27.3C21.3933 27.4867 21.92 27.68 22.44 27.88L21.38 30.42ZM24.66 16.04C24.66 16.3333 24.5467 16.5933 24.32 16.82C24.1067 17.0333 23.8467 17.14 23.54 17.14C23.2333 17.14 22.9733 17.0333 22.76 16.82C22.56 16.5933 22.46 16.3333 22.46 16.04C22.46 15.7333 22.56 15.4733 22.76 15.26C22.9733 15.0467 23.2333 14.94 23.54 14.94C23.8467 14.94 24.1067 15.0467 24.32 15.26C24.5467 15.4733 24.66 15.7333 24.66 16.04ZM22.24 16.86C22.24 17.1933 22.12 17.48 21.88 17.72C21.6533 17.96 21.3667 18.08 21.02 18.08C20.6867 18.08 20.4 17.96 20.16 17.72C19.9333 17.48 19.82 17.1933 19.82 16.86C19.82 16.5267 19.9333 16.24 20.16 16C20.4 15.76 20.6867 15.64 21.02 15.64C21.3667 15.64 21.6533 15.76 21.88 16C22.12 16.24 22.24 16.5267 22.24 16.86ZM10.7 28.76C10.14 29.6533 9.60667 30.3467 9.1 30.84C8.60667 31.32 8.15333 31.56 7.74 31.56C7.36667 31.56 7.04 31.3333 6.76 30.88C6.48 30.4133 6.26667 29.6733 6.12 28.66C6.02667 27.9267 5.95333 27.0333 5.9 25.98C5.86 24.9267 5.84 23.8333 5.84 22.7C5.84 21.4867 5.86 20.2867 5.9 19.1C5.95333 17.9133 6.02 16.8667 6.1 15.96L8.9 16.24C8.80667 16.9067 8.71333 17.6333 8.62 18.42C8.54 19.2067 8.46667 20.0067 8.4 20.82C8.34667 21.6333 8.3 22.42 8.26 23.18C8.23333 23.94 8.22 24.6267 8.22 25.24C8.22 25.5867 8.22667 25.9067 8.24 26.2C8.26667 26.48 8.28667 26.7267 8.3 26.94C8.35333 27.4067 8.41333 27.7533 8.48 27.98C8.54667 28.2067 8.64667 28.32 8.78 28.32C8.96667 28.32 9.36 28.0067 9.96 27.38L10.7 28.76ZM16.84 28.26C16.52 28.1533 16.2067 28.06 15.9 27.98C15.5933 27.8867 15.3067 27.8133 15.04 27.76C14.9067 27.7333 14.7867 27.7133 14.68 27.7C14.5733 27.6867 14.4733 27.68 14.38 27.68C13.8333 27.68 13.56 27.86 13.56 28.22C13.56 28.3133 13.5933 28.44 13.66 28.6C13.8867 29.0667 14.1933 29.4533 14.58 29.76C14.98 30.0667 15.36 30.2533 15.72 30.32C15.7733 30.3333 15.84 30.34 15.92 30.34C16.1867 30.34 16.3933 30.2 16.54 29.92C16.6867 29.6267 16.7867 29.0733 16.84 28.26ZM34.52 31.14V29.84H35.16C35.96 29.84 36.4867 29.7867 36.74 29.68C37.0067 29.5733 37.1667 29.4133 37.22 29.2C37.3667 28.6267 37.4933 28.0267 37.6 27.4C37.7067 26.76 37.7867 26.1533 37.84 25.58C37.9067 24.9933 37.94 24.5 37.94 24.1C37.94 23.0067 37.7333 22.2467 37.32 21.82C36.9067 21.38 36.2267 21.16 35.28 21.16C35.1067 21.16 34.92 21.1667 34.72 21.18C34.5333 21.18 34.34 21.1867 34.14 21.2L30.54 32L28.46 31.38L31.06 21.68C30.54 21.7867 30.0467 21.9067 29.58 22.04C29.1133 22.1733 28.7067 22.3133 28.36 22.46L27.82 19.7C28.38 19.6333 28.9933 19.5733 29.66 19.52C30.34 19.4533 31.0133 19.4067 31.68 19.38L32.9 14.82L35.98 15.74L34.8 19.26C36.1467 19.26 37.22 19.4067 38.02 19.7C38.8333 19.9933 39.4133 20.4933 39.76 21.2C40.12 21.9067 40.3 22.9 40.3 24.18C40.3 24.8067 40.26 25.58 40.18 26.5C40.1133 27.4067 40.0133 28.36 39.88 29.36C39.7467 30.3467 39.5733 31.2733 39.36 32.14L34.52 31.14ZM43.14 25.78C42.8467 24.5667 42.4933 23.4333 42.08 22.38C41.68 21.3133 41.2867 20.3133 40.9 19.38L42.4 18.64C43.0267 19.3733 43.6467 20.2067 44.26 21.14C44.8867 22.06 45.4867 23.0467 46.06 24.1L43.14 25.78Z" fill="white"/>
<path d="M45.7891 11.1096C47.5849 13.7919 48.8753 16.8411 49.5241 20.121L48.5432 20.315C48.8428 21.8295 49 23.3959 49 25C49 26.6041 48.8428 28.1705 48.5432 29.685L49.5241 29.8791C48.8753 33.1589 47.5849 36.2081 45.7891 38.8904L44.9582 38.3341C43.2057 40.9517 40.9517 43.2057 38.3341 44.9582L38.8904 45.7891C36.2081 47.5849 33.1589 48.8753 29.879 49.5241L29.685 48.5432C28.1705 48.8428 26.6041 49 25 49C23.3959 49 21.8295 48.8428 20.315 48.5432L20.1209 49.5241C16.8411 48.8753 13.7919 47.5849 11.1096 45.7891L11.6659 44.9582C9.04826 43.2057 6.79431 40.9517 5.04183 38.3341L4.21086 38.8904C2.41511 36.2081 1.12471 33.1589 0.475851 29.879L1.45684 29.685C1.15724 28.1705 1 26.6041 1 25C1 23.3959 1.15724 21.8295 1.45684 20.315L0.475852 20.1209C1.12471 16.8411 2.41512 13.7919 4.21087 11.1096L5.04183 11.6659C6.79432 9.04826 9.04826 6.79431 11.6659 5.04183L11.1096 4.21086C13.7919 2.41511 16.8411 1.12471 20.121 0.475851L20.315 1.45684C21.8295 1.15724 23.3959 1 25 1C26.6041 1 28.1705 1.15724 29.685 1.45684L29.8791 0.475852C33.1589 1.12471 36.2081 2.41512 38.8904 4.21087L38.3341 5.04183C40.9517 6.79432 43.2057 9.04826 44.9582 11.6659L45.7891 11.1096Z" stroke="white" stroke-width="2" stroke-dasharray="8 8"/>
</svg>
