<svg width="42" height="19" viewBox="0 0 42 19" fill="none" xmlns="http://www.w3.org/2000/svg">
<path d="M16.38 16.42C16.0067 16.1933 15.6267 15.9733 15.24 15.76C14.8667 15.5467 14.4867 15.3533 14.1 15.18C13.9933 16.02 13.8333 16.6667 13.62 17.12C13.42 17.5867 13.1533 17.9067 12.82 18.08C12.4867 18.2533 12.0733 18.34 11.58 18.34C11.5 18.34 11.4133 18.34 11.32 18.34C11.24 18.34 11.1467 18.3333 11.04 18.32C10.4533 18.2667 9.84 18.0933 9.2 17.8C8.57333 17.52 7.98667 17.1467 7.44 16.68C6.90667 16.2 6.48667 15.66 6.18 15.06C5.95333 14.58 5.84 14.16 5.84 13.8C5.84 13.2 6.10667 12.72 6.64 12.36C7.17333 12 7.92667 11.82 8.9 11.82C9.04667 11.82 9.18667 11.82 9.32 11.82C9.46667 11.82 9.62 11.8333 9.78 11.86C10.1 11.8867 10.44 11.9333 10.8 12C11.16 12.0533 11.5267 12.12 11.9 12.2V10.98C11.9 10.3933 11.8933 9.78 11.88 9.14C11.88 8.48667 11.8733 7.83333 11.86 7.18H6.66L6.04 5.46L11.8 4.98C11.7867 4.12667 11.76 3.34667 11.72 2.64C11.6933 1.92 11.66 1.35333 11.62 0.939999L14.52 1.16C14.52 1.30667 14.52 1.48 14.52 1.68C14.5333 1.88 14.54 2.1 14.54 2.34C14.54 2.67333 14.5333 3.04667 14.52 3.46C14.52 3.86 14.5133 4.28667 14.5 4.74L17.2 4.52V7.18H14.46C14.4467 8.15333 14.42 9.13333 14.38 10.12C14.3533 11.1067 14.32 12 14.28 12.8C14.8 12.9467 15.3267 13.1133 15.86 13.3C16.3933 13.4867 16.92 13.68 17.44 13.88L16.38 16.42ZM19.66 2.04C19.66 2.33333 19.5467 2.59333 19.32 2.82C19.1067 3.03333 18.8467 3.14 18.54 3.14C18.2333 3.14 17.9733 3.03333 17.76 2.82C17.56 2.59333 17.46 2.33333 17.46 2.04C17.46 1.73333 17.56 1.47333 17.76 1.26C17.9733 1.04667 18.2333 0.939999 18.54 0.939999C18.8467 0.939999 19.1067 1.04667 19.32 1.26C19.5467 1.47333 19.66 1.73333 19.66 2.04ZM17.24 2.86C17.24 3.19333 17.12 3.48 16.88 3.72C16.6533 3.96 16.3667 4.08 16.02 4.08C15.6867 4.08 15.4 3.96 15.16 3.72C14.9333 3.48 14.82 3.19333 14.82 2.86C14.82 2.52667 14.9333 2.24 15.16 2C15.4 1.76 15.6867 1.64 16.02 1.64C16.3667 1.64 16.6533 1.76 16.88 2C17.12 2.24 17.24 2.52667 17.24 2.86ZM5.7 14.76C5.14 15.6533 4.60667 16.3467 4.1 16.84C3.60667 17.32 3.15333 17.56 2.74 17.56C2.36667 17.56 2.04 17.3333 1.76 16.88C1.48 16.4133 1.26667 15.6733 1.12 14.66C1.02667 13.9267 0.953333 13.0333 0.9 11.98C0.86 10.9267 0.84 9.83333 0.84 8.7C0.84 7.48667 0.86 6.28667 0.9 5.1C0.953333 3.91333 1.02 2.86667 1.1 1.96L3.9 2.24C3.80667 2.90667 3.71333 3.63333 3.62 4.42C3.54 5.20667 3.46667 6.00667 3.4 6.82C3.34667 7.63333 3.3 8.42 3.26 9.18C3.23333 9.94 3.22 10.6267 3.22 11.24C3.22 11.5867 3.22667 11.9067 3.24 12.2C3.26667 12.48 3.28667 12.7267 3.3 12.94C3.35333 13.4067 3.41333 13.7533 3.48 13.98C3.54667 14.2067 3.64667 14.32 3.78 14.32C3.96667 14.32 4.36 14.0067 4.96 13.38L5.7 14.76ZM11.84 14.26C11.52 14.1533 11.2067 14.06 10.9 13.98C10.5933 13.8867 10.3067 13.8133 10.04 13.76C9.90667 13.7333 9.78667 13.7133 9.68 13.7C9.57333 13.6867 9.47333 13.68 9.38 13.68C8.83333 13.68 8.56 13.86 8.56 14.22C8.56 14.3133 8.59333 14.44 8.66 14.6C8.88667 15.0667 9.19333 15.4533 9.58 15.76C9.98 16.0667 10.36 16.2533 10.72 16.32C10.7733 16.3333 10.84 16.34 10.92 16.34C11.1867 16.34 11.3933 16.2 11.54 15.92C11.6867 15.6267 11.7867 15.0733 11.84 14.26ZM29.52 17.14V15.84H30.16C30.96 15.84 31.4867 15.7867 31.74 15.68C32.0067 15.5733 32.1667 15.4133 32.22 15.2C32.3667 14.6267 32.4933 14.0267 32.6 13.4C32.7067 12.76 32.7867 12.1533 32.84 11.58C32.9067 10.9933 32.94 10.5 32.94 10.1C32.94 9.00667 32.7333 8.24667 32.32 7.82C31.9067 7.38 31.2267 7.16 30.28 7.16C30.1067 7.16 29.92 7.16667 29.72 7.18C29.5333 7.18 29.34 7.18667 29.14 7.2L25.54 18L23.46 17.38L26.06 7.68C25.54 7.78667 25.0467 7.90667 24.58 8.04C24.1133 8.17333 23.7067 8.31333 23.36 8.46L22.82 5.7C23.38 5.63333 23.9933 5.57333 24.66 5.52C25.34 5.45333 26.0133 5.40667 26.68 5.38L27.9 0.82L30.98 1.74L29.8 5.26C31.1467 5.26 32.22 5.40667 33.02 5.7C33.8333 5.99333 34.4133 6.49333 34.76 7.2C35.12 7.90667 35.3 8.9 35.3 10.18C35.3 10.8067 35.26 11.58 35.18 12.5C35.1133 13.4067 35.0133 14.36 34.88 15.36C34.7467 16.3467 34.5733 17.2733 34.36 18.14L29.52 17.14ZM38.14 11.78C37.8467 10.5667 37.4933 9.43333 37.08 8.38C36.68 7.31333 36.2867 6.31333 35.9 5.38L37.4 4.64C38.0267 5.37333 38.6467 6.20667 39.26 7.14C39.8867 8.06 40.4867 9.04667 41.06 10.1L38.14 11.78Z" fill="white"/>
</svg>
