<svg width="50" height="50" viewBox="0 0 50 50" fill="none" xmlns="http://www.w3.org/2000/svg">
<path d="M45.7891 11.1096C47.5849 13.7919 48.8753 16.8411 49.5241 20.121L48.5432 20.315C48.8428 21.8295 49 23.3959 49 25C49 26.6041 48.8428 28.1705 48.5432 29.685L49.5241 29.8791C48.8753 33.1589 47.5849 36.2081 45.7891 38.8904L44.9582 38.3341C43.2057 40.9517 40.9517 43.2057 38.3341 44.9582L38.8904 45.7891C36.2081 47.5849 33.1589 48.8753 29.879 49.5241L29.685 48.5432C28.1705 48.8428 26.6041 49 25 49C23.3959 49 21.8295 48.8428 20.315 48.5432L20.1209 49.5241C16.8411 48.8753 13.7919 47.5849 11.1096 45.7891L11.6659 44.9582C9.04826 43.2057 6.79431 40.9517 5.04183 38.3341L4.21086 38.8904C2.41511 36.2081 1.12471 33.1589 0.475851 29.879L1.45684 29.685C1.15724 28.1705 1 26.6041 1 25C1 23.3959 1.15724 21.8295 1.45684 20.315L0.475852 20.1209C1.12471 16.8411 2.41512 13.7919 4.21087 11.1096L5.04183 11.6659C6.79432 9.04826 9.04826 6.79431 11.6659 5.04183L11.1096 4.21086C13.7919 2.41511 16.8411 1.12471 20.121 0.475851L20.315 1.45684C21.8295 1.15724 23.3959 1 25 1C26.6041 1 28.1705 1.15724 29.685 1.45684L29.8791 0.475852C33.1589 1.12471 36.2081 2.41512 38.8904 4.21087L38.3341 5.04183C40.9517 6.79432 43.2057 9.04826 44.9582 11.6659L45.7891 11.1096Z" stroke="white" stroke-width="2" stroke-dasharray="8 8"/>
</svg>
